<?xml version="1.0" encoding="UTF-8"?>
<svg xmlns="http://www.w3.org/2000/svg" viewBox="0 0 24 24">
  <title>Two-heart rating</title>
  <g transform="translate(.085 .836887)">
    <path d="M8 14.2C7.6 13.8 1 9.4 1 4.8C1 2.4 2.8 1 4.8 1C6.2 1 7.4 1.8 8 2.9C8.6 1.8 9.8 1 11.2 1C13.2 1 15 2.4 15 4.8C15 9.4 8.4 13.8 8 14.2Z" transform="translate(11.2 3.572) scale(.78)" fill="#000000"/>
    <path d="M8 14.2C7.6 13.8 1 9.4 1 4.8C1 2.4 2.8 1 4.8 1C6.2 1 7.4 1.8 8 2.9C8.6 1.8 9.8 1 11.2 1C13.2 1 15 2.4 15 4.8C15 9.4 8.4 13.8 8 14.2Z" transform="translate(.15 8.572) scale(.78)" fill="#000000"/>
  </g>
</svg>
