<?xml version="1.0" encoding="UTF-8"?>
<svg xmlns="http://www.w3.org/2000/svg" viewBox="0 0 24 24">
  <title>Three-heart rating</title>
  <g transform="translate(.54 2.360531)">
    <path d="M8 14.2C7.6 13.8 1 9.4 1 4.8C1 2.4 2.8 1 4.8 1C6.2 1 7.4 1.8 8 2.9C8.6 1.8 9.8 1 11.2 1C13.2 1 15 2.4 15 4.8C15 9.4 8.4 13.8 8 14.2Z" transform="translate(.2 1.983) scale(.67)" fill="#000000"/>
    <path d="M8 14.2C7.6 13.8 1 9.4 1 4.8C1 2.4 2.8 1 4.8 1C6.2 1 7.4 1.8 8 2.9C8.6 1.8 9.8 1 11.2 1C13.2 1 15 2.4 15 4.8C15 9.4 8.4 13.8 8 14.2Z" transform="translate(12 1.983) scale(.67)" fill="#000000"/>
    <path d="M8 14.2C7.6 13.8 1 9.4 1 4.8C1 2.4 2.8 1 4.8 1C6.2 1 7.4 1.8 8 2.9C8.6 1.8 9.8 1 11.2 1C13.2 1 15 2.4 15 4.8C15 9.4 8.4 13.8 8 14.2Z" transform="translate(6.1 11.833) scale(.67)" fill="#000000"/>
  </g>
</svg>
